<mxfile host="app.diagrams.net" agent="Mozilla/5.0 (Windows NT 10.0; Win64; x64) AppleWebKit/537.36 (KHTML, like Gecko) Chrome/136.0.0.0 Safari/537.36" version="27.0.9">
  <diagram name="第 1 页" id="WS4fnihuYo0mbBM30wsi">
    <mxGraphModel dx="1665" dy="777" grid="1" gridSize="10" guides="1" tooltips="1" connect="1" arrows="1" fold="1" page="1" pageScale="1" pageWidth="827" pageHeight="1169" math="0" shadow="0">
      <root>
        <mxCell id="0" />
        <mxCell id="1" parent="0" />
        <mxCell id="1kCZvcn3RSVKpdqQEEMo-1" value="剩余数据补充标注" style="rounded=0;whiteSpace=wrap;html=1;" vertex="1" parent="1">
          <mxGeometry x="310" y="70" width="590" height="40" as="geometry" />
        </mxCell>
        <mxCell id="1kCZvcn3RSVKpdqQEEMo-8" style="edgeStyle=orthogonalEdgeStyle;rounded=0;orthogonalLoop=1;jettySize=auto;html=1;exitX=0;exitY=0.5;exitDx=0;exitDy=0;entryX=0;entryY=0.5;entryDx=0;entryDy=0;" edge="1" parent="1" source="1kCZvcn3RSVKpdqQEEMo-2" target="1kCZvcn3RSVKpdqQEEMo-3">
          <mxGeometry relative="1" as="geometry" />
        </mxCell>
        <mxCell id="1kCZvcn3RSVKpdqQEEMo-9" value="非行人、人脸" style="edgeLabel;html=1;align=center;verticalAlign=middle;resizable=0;points=[];" vertex="1" connectable="0" parent="1kCZvcn3RSVKpdqQEEMo-8">
          <mxGeometry x="-0.0849" y="2" relative="1" as="geometry">
            <mxPoint as="offset" />
          </mxGeometry>
        </mxCell>
        <mxCell id="1kCZvcn3RSVKpdqQEEMo-10" style="edgeStyle=orthogonalEdgeStyle;rounded=0;orthogonalLoop=1;jettySize=auto;html=1;exitX=1;exitY=0.5;exitDx=0;exitDy=0;entryX=1;entryY=0.5;entryDx=0;entryDy=0;" edge="1" parent="1" source="1kCZvcn3RSVKpdqQEEMo-2" target="1kCZvcn3RSVKpdqQEEMo-7">
          <mxGeometry relative="1" as="geometry" />
        </mxCell>
        <mxCell id="1kCZvcn3RSVKpdqQEEMo-11" value="行人、人脸" style="edgeLabel;html=1;align=center;verticalAlign=middle;resizable=0;points=[];" vertex="1" connectable="0" parent="1kCZvcn3RSVKpdqQEEMo-10">
          <mxGeometry x="-0.3714" y="-5" relative="1" as="geometry">
            <mxPoint as="offset" />
          </mxGeometry>
        </mxCell>
        <mxCell id="1kCZvcn3RSVKpdqQEEMo-2" value="&lt;div&gt;模型组合1：&lt;/div&gt;&lt;div&gt;&lt;span style=&quot;background-color: transparent; color: light-dark(rgb(0, 0, 0), rgb(255, 255, 255));&quot;&gt;flo-od1&lt;/span&gt;&lt;span style=&quot;background-color: transparent; color: light-dark(rgb(0, 0, 0), rgb(255, 255, 255));&quot;&gt;、&lt;/span&gt;&lt;span style=&quot;background-color: transparent; color: light-dark(rgb(0, 0, 0), rgb(255, 255, 255));&quot;&gt;flo-od2&lt;/span&gt;&lt;span style=&quot;background-color: transparent; color: light-dark(rgb(0, 0, 0), rgb(255, 255, 255));&quot;&gt;、&lt;/span&gt;&lt;span style=&quot;background-color: transparent; color: light-dark(rgb(0, 0, 0), rgb(255, 255, 255));&quot;&gt;yolo-od1（yolo11-s）&lt;/span&gt;&lt;span style=&quot;background-color: transparent; color: light-dark(rgb(0, 0, 0), rgb(255, 255, 255));&quot;&gt;、&lt;/span&gt;&lt;span style=&quot;background-color: transparent; color: light-dark(rgb(0, 0, 0), rgb(255, 255, 255));&quot;&gt;yolo-od2（yolo11-x）&lt;/span&gt;&lt;/div&gt;&lt;div&gt;&lt;span style=&quot;background-color: transparent; color: light-dark(rgb(0, 0, 0), rgb(255, 255, 255));&quot;&gt;+&lt;/span&gt;&lt;span style=&quot;background-color: transparent; color: light-dark(rgb(0, 0, 0), rgb(255, 255, 255));&quot;&gt;flo-od（原始模型，只保留行人和人脸）&lt;/span&gt;&lt;/div&gt;&lt;div&gt;&lt;span style=&quot;background-color: transparent; color: light-dark(rgb(0, 0, 0), rgb(255, 255, 255));&quot;&gt;+yolo-person模型（补充行人）&lt;/span&gt;&lt;/div&gt;&lt;div&gt;&lt;br&gt;&lt;/div&gt;" style="rounded=0;whiteSpace=wrap;html=1;fillColor=#E6D0DE;" vertex="1" parent="1">
          <mxGeometry x="400" y="170" width="430" height="80" as="geometry" />
        </mxCell>
        <mxCell id="1kCZvcn3RSVKpdqQEEMo-3" value="同类目标支持的模型数&amp;gt;=2,&lt;div&gt;这个目标必须保证两个模型以上检出&lt;/div&gt;" style="rhombus;whiteSpace=wrap;html=1;" vertex="1" parent="1">
          <mxGeometry x="300" y="380" width="300" height="110" as="geometry" />
        </mxCell>
        <mxCell id="1kCZvcn3RSVKpdqQEEMo-7" value="同类目标支持的模型数&amp;gt;=2,&lt;div&gt;这个目标必须保证两个模型以上检出&lt;/div&gt;" style="rhombus;whiteSpace=wrap;html=1;" vertex="1" parent="1">
          <mxGeometry x="650" y="380" width="300" height="110" as="geometry" />
        </mxCell>
        <mxCell id="1kCZvcn3RSVKpdqQEEMo-12" value="NMS框处理，获取最终检测框" style="rounded=0;whiteSpace=wrap;html=1;" vertex="1" parent="1">
          <mxGeometry x="300" y="555" width="650" height="60" as="geometry" />
        </mxCell>
        <mxCell id="1kCZvcn3RSVKpdqQEEMo-13" style="edgeStyle=orthogonalEdgeStyle;rounded=0;orthogonalLoop=1;jettySize=auto;html=1;exitX=0.5;exitY=1;exitDx=0;exitDy=0;entryX=0.231;entryY=0.05;entryDx=0;entryDy=0;entryPerimeter=0;" edge="1" parent="1" source="1kCZvcn3RSVKpdqQEEMo-3" target="1kCZvcn3RSVKpdqQEEMo-12">
          <mxGeometry relative="1" as="geometry" />
        </mxCell>
        <mxCell id="1kCZvcn3RSVKpdqQEEMo-15" value="是" style="edgeLabel;html=1;align=center;verticalAlign=middle;resizable=0;points=[];" vertex="1" connectable="0" parent="1kCZvcn3RSVKpdqQEEMo-13">
          <mxGeometry x="-0.0909" relative="1" as="geometry">
            <mxPoint y="-1" as="offset" />
          </mxGeometry>
        </mxCell>
        <mxCell id="1kCZvcn3RSVKpdqQEEMo-14" style="edgeStyle=orthogonalEdgeStyle;rounded=0;orthogonalLoop=1;jettySize=auto;html=1;exitX=0.5;exitY=1;exitDx=0;exitDy=0;entryX=0.769;entryY=0.083;entryDx=0;entryDy=0;entryPerimeter=0;" edge="1" parent="1" source="1kCZvcn3RSVKpdqQEEMo-7" target="1kCZvcn3RSVKpdqQEEMo-12">
          <mxGeometry relative="1" as="geometry" />
        </mxCell>
        <mxCell id="1kCZvcn3RSVKpdqQEEMo-16" value="是" style="edgeLabel;html=1;align=center;verticalAlign=middle;resizable=0;points=[];" vertex="1" connectable="0" parent="1kCZvcn3RSVKpdqQEEMo-14">
          <mxGeometry x="-0.1438" y="-1" relative="1" as="geometry">
            <mxPoint y="-2" as="offset" />
          </mxGeometry>
        </mxCell>
        <mxCell id="1kCZvcn3RSVKpdqQEEMo-17" value="NMS框处理，获取最终检测框" style="rounded=0;whiteSpace=wrap;html=1;" vertex="1" parent="1">
          <mxGeometry x="300" y="680" width="650" height="60" as="geometry" />
        </mxCell>
        <mxCell id="1kCZvcn3RSVKpdqQEEMo-18" value="&lt;div&gt;模型组合1：&lt;/div&gt;&lt;div&gt;&lt;span style=&quot;background-color: transparent; color: light-dark(rgb(0, 0, 0), rgb(255, 255, 255));&quot;&gt;flo-vrd&lt;/span&gt;&lt;span style=&quot;background-color: transparent; color: light-dark(rgb(0, 0, 0), rgb(255, 255, 255));&quot;&gt;、yolo-vrd&lt;/span&gt;&lt;/div&gt;&lt;div&gt;&lt;br&gt;&lt;/div&gt;&lt;div&gt;&lt;br&gt;&lt;/div&gt;" style="rounded=0;whiteSpace=wrap;html=1;fillColor=#E6D0DE;" vertex="1" parent="1">
          <mxGeometry x="400" y="790" width="430" height="80" as="geometry" />
        </mxCell>
      </root>
    </mxGraphModel>
  </diagram>
</mxfile>
